# xmcd
#
# Track frame offsets:
#	150
#	19875
#	41947
#	56300
#	67187
#	87167
#	100690
#	117660
#	138930
#	149832
#	169352
#	185367
#
# Disc length: 2697 seconds
#
# Revision: 1
# Processed by: cddbd v1.4PL0 Copyright (c) Steve Scherf et al.
# Submitted via: audiograbber 1.81.02
#
DISCID=b50a870c
DTITLE=JANI LAUZON - BLUE VOICE NEW VOICE
DYEAR=1900
DGENRE=
TTITLE0=99 LBS
TTITLE1=BE MY MAGICIAN
TTITLE2=WHITE CEILING BLUES
TTITLE3=WABAKII BEZHIG
TTITLE4=BROKEN SPIRIT
TTITLE5=DONT TELL ME
TTITLE6=THOMAS DUNSANS REVENGE
TTITLE7=GOIN WILD FOR YOU BABY
TTITLE8=WABAKII BEZHIG
TTITLE9=CANT BUY THEM BLUES
TTITLE10=DIAMOND IN THE ROUGH
TTITLE11=ENDLESS NIGHT
EXTD=
EXTT0=
EXTT1=
EXTT2=
EXTT3=
EXTT4=
EXTT5=
EXTT6=
EXTT7=
EXTT8=
EXTT9=
EXTT10=
EXTT11=
PLAYORDER=
